<svg viewBox="-20 -20 90 84" fill="none" xmlns="http://www.w3.org/2000/svg"><path d="M40.85 34.053C44.662 30.649 47 26.055 47 21 47 10.507 36.926 2 24.5 2S2 10.507 2 21s10.074 19 22.5 19c3.525 0 6.861-.685 9.832-1.905 3.489 2.154 7.764 3.702 12.485 3.375-2.494-.634-4.64-3.202-5.967-7.417z" class="ccompli2" fill="#D0EDDB"/><path d="M41 21c0 7.732-7.387 14-16.5 14S8 28.732 8 21 15.387 7 24.5 7 41 13.268 41 21z" class="ccompli1" fill="#6ac48b"/><path d="M35 21c0 4.97-4.701 9-10.5 9S14 25.97 14 21s4.701-9 10.5-9S35 16.03 35 21z" class="ccustom" fill="#16A34A"/></svg>